<svg xmlns="http://www.w3.org/2000/svg" version="1.2" baseProfile="tiny" width="100px" height="100px" viewBox="0 0 96 96">
<path fill="#010101" opacity="1.000000" stroke="none" 
	d="
M56.000000,97.000000 
	C37.333340,97.000000 19.166677,97.000000 1.000012,97.000000 
	C1.000008,65.000015 1.000008,33.000031 1.000004,1.000034 
	C32.999973,1.000022 64.999947,1.000022 96.999939,1.000011 
	C96.999962,32.999966 96.999962,64.999931 96.999985,96.999954 
	C83.500000,97.000000 70.000000,97.000000 56.000000,97.000000 
M74.250656,50.436665 
	C74.447906,49.621601 74.645157,48.806541 75.063324,47.285229 
	C75.380806,45.858513 75.698280,44.431801 76.470154,42.466621 
	C76.677139,41.322632 76.884132,40.178646 77.578682,38.525330 
	C77.778885,37.374142 77.979080,36.222950 78.702271,34.488312 
	C79.589012,32.226337 79.221809,30.654142 76.456490,30.391777 
	C74.656975,30.221046 72.858208,30.042383 70.750549,29.206076 
	C67.855179,28.426273 64.959801,27.646469 61.524662,26.358091 
	C51.553558,23.699078 41.582455,21.040064 31.299849,18.297981 
	C29.804636,24.541965 28.431259,30.277170 26.624973,36.572212 
	C26.411861,37.715401 26.198751,38.858589 25.471861,40.607250 
	C25.085333,42.146538 24.698807,43.685825 24.038370,45.805614 
	C23.705515,47.539806 23.372658,49.273994 22.591293,51.557709 
	C22.377899,52.706539 22.164505,53.855370 21.460070,55.555256 
	C21.107910,56.986248 20.755751,58.417236 20.070650,60.413250 
	C19.966204,61.280167 19.861759,62.147087 19.273746,63.549061 
	C18.387794,68.729507 23.066017,66.398796 25.687822,68.030151 
	C27.788582,68.599785 29.889339,69.169426 32.728390,70.011177 
	C43.938335,73.055107 55.148277,76.099037 66.773575,79.255753 
	C68.352325,72.732719 69.814186,66.692635 71.768303,60.129482 
	C71.844421,59.419495 71.920540,58.709503 72.290421,57.618649 
	C72.290421,57.618649 72.307327,57.137947 72.737099,56.631889 
	C72.843277,55.759567 72.949455,54.887249 73.507927,53.539009 
	C73.646545,52.691189 73.785164,51.843369 74.250656,50.436665 
z"/>
<path fill="#8F9FAD" opacity="1.000000" stroke="none" 
	d="
M71.276047,60.652550 
	C69.814186,66.692635 68.352325,72.732719 66.773575,79.255753 
	C55.148277,76.099037 43.938335,73.055107 32.373894,69.506744 
	C33.185032,68.025932 34.218456,66.463425 35.537224,66.165962 
	C46.001583,63.805603 56.507099,61.618107 67.038986,59.579010 
	C68.333527,59.328369 69.858086,60.265724 71.276047,60.652550 
z"/>
<path fill="#F8F9FA" opacity="1.000000" stroke="none" 
	d="
M27.057880,36.012375 
	C28.431259,30.277170 29.804636,24.541965 31.299849,18.297981 
	C41.582455,21.040064 51.553558,23.699078 61.631653,26.952663 
	C59.230896,28.504379 56.794659,29.781683 54.202442,30.360699 
	C45.183441,32.375256 36.110382,34.147804 27.057880,36.012375 
z"/>
<path fill="#D6DCE4" opacity="1.000000" stroke="none" 
	d="
M24.312279,45.225113 
	C24.698807,43.685825 25.085333,42.146538 26.161007,40.308044 
	C28.341660,39.919514 29.875332,40.023960 31.317970,39.710049 
	C42.319138,37.316246 53.315208,34.895287 64.281303,32.346977 
	C66.607056,31.806519 68.803230,30.708441 71.059105,29.867275 
	C72.858208,30.042383 74.656975,30.221046 76.456490,30.391777 
	C79.221809,30.654142 79.589012,32.226337 77.995712,34.761200 
	C69.914612,36.353306 62.520668,37.579525 55.190125,39.109520 
	C54.274460,39.300629 53.694164,41.098579 52.565437,42.135166 
	C50.465408,41.734623 48.629459,41.627186 47.080772,40.904308 
	C44.577942,39.736069 43.808456,41.234783 42.560062,43.000977 
	C36.179226,43.742725 30.245752,44.483921 24.312279,45.225113 
z"/>
<path fill="#E7EBEF" opacity="1.000000" stroke="none" 
	d="
M70.904831,29.536676 
	C68.803230,30.708441 66.607056,31.806519 64.281303,32.346977 
	C53.315208,34.895287 42.319138,37.316246 31.317970,39.710049 
	C29.875332,40.023960 28.341660,39.919514 26.417896,40.005306 
	C26.198751,38.858589 26.411861,37.715401 26.841427,36.292294 
	C36.110382,34.147804 45.183441,32.375256 54.202442,30.360699 
	C56.794659,29.781683 59.230896,28.504379 61.901539,27.206951 
	C64.959801,27.646469 67.855179,28.426273 70.904831,29.536676 
z"/>
<path fill="#9EACB9" opacity="1.000000" stroke="none" 
	d="
M24.991188,67.784470 
	C23.066017,66.398796 18.387794,68.729507 19.956749,63.278240 
	C26.277431,61.979168 31.982607,61.218834 37.527409,59.821926 
	C40.840851,58.987164 43.903011,57.154964 47.464474,55.800213 
	C50.202938,55.365059 53.035362,59.034580 55.228699,55.005600 
	C55.655140,55.011238 55.825718,55.013062 56.060059,55.355614 
	C56.934860,55.893707 57.782291,56.352715 58.551029,56.245815 
	C63.395622,55.572117 68.222748,54.772766 73.055634,54.014931 
	C72.949455,54.887249 72.843277,55.759567 72.200142,56.842865 
	C71.447113,57.040047 71.231033,57.026260 70.682297,56.869713 
	C69.881020,56.574581 69.370552,56.214939 68.949875,56.299908 
	C55.725632,58.970821 42.492138,61.603146 29.316578,64.498573 
	C27.711592,64.851288 26.425219,66.653839 24.991188,67.784470 
z"/>
<path fill="#97A6B3" opacity="1.000000" stroke="none" 
	d="
M25.339504,67.907310 
	C26.425219,66.653839 27.711592,64.851288 29.316578,64.498573 
	C42.492138,61.603146 55.725632,58.970821 68.949875,56.299908 
	C69.370552,56.214939 69.881020,56.574581 70.790726,57.083328 
	C71.428101,57.706429 71.683052,57.893036 71.996666,57.999516 
	C71.920540,58.709503 71.844421,59.419495 71.522171,60.391014 
	C69.858086,60.265724 68.333527,59.328369 67.038986,59.579010 
	C56.507099,61.618107 46.001583,63.805603 35.537224,66.165962 
	C34.218456,66.463425 33.185032,68.025932 32.004749,69.370689 
	C29.889339,69.169426 27.788582,68.599785 25.339504,67.907310 
z"/>
<path fill="#C9D1DB" opacity="1.000000" stroke="none" 
	d="
M52.958473,42.152000 
	C53.694164,41.098579 54.274460,39.300629 55.190125,39.109520 
	C62.520668,37.579525 69.914612,36.353306 77.734215,35.052925 
	C77.979080,36.222950 77.778885,37.374142 76.912796,38.772537 
	C72.559128,39.684265 68.787819,40.063393 65.211945,41.110176 
	C62.682693,41.850582 60.418026,43.494839 57.868889,44.766159 
	C57.702526,44.796715 57.417870,44.979500 57.336617,44.625999 
	C55.823071,43.565670 54.390770,42.858837 52.958473,42.152000 
z"/>
<path fill="#C6CFD9" opacity="1.000000" stroke="none" 
	d="
M24.175323,45.515366 
	C30.245752,44.483921 36.179226,43.742725 42.587799,43.371475 
	C42.654381,45.157730 42.245861,46.574047 41.414024,47.993774 
	C35.007072,49.000851 29.023438,50.004520 23.039803,51.008186 
	C23.372658,49.273994 23.705515,47.539806 24.175323,45.515366 
z"/>
<path fill="#B4BECA" opacity="1.000000" stroke="none" 
	d="
M57.417870,44.979500 
	C57.417870,44.979500 57.702526,44.796715 58.295258,44.864067 
	C64.597252,44.289310 70.306503,43.647198 76.015762,43.005085 
	C75.698280,44.431801 75.380806,45.858513 74.531540,47.641113 
	C68.014084,48.997459 62.028419,49.997921 56.020538,50.608311 
	C56.471504,48.471992 56.944687,46.725746 57.417870,44.979500 
z"/>
<path fill="#A6B3BF" opacity="1.000000" stroke="none" 
	d="
M47.078125,55.771118 
	C43.903011,57.154964 40.840851,58.987164 37.527409,59.821926 
	C31.982607,61.218834 26.277431,61.979168 20.198534,63.010712 
	C19.861759,62.147087 19.966204,61.280167 20.682289,60.162323 
	C28.476421,58.128845 35.658916,56.346294 43.158333,54.595909 
	C44.676212,55.009087 45.877167,55.390102 47.078125,55.771118 
z"/>
<path fill="#AFBBC6" opacity="1.000000" stroke="none" 
	d="
M42.841408,54.563744 
	C35.658916,56.346294 28.476421,58.128845 20.848759,59.879814 
	C20.755751,58.417236 21.107910,56.986248 22.134514,55.280815 
	C28.810524,54.000401 34.812092,52.994427 40.857819,52.359978 
	C41.548454,53.342243 42.194931,53.952991 42.841408,54.563744 
z"/>
<path fill="#BBC5D0" opacity="1.000000" stroke="none" 
	d="
M40.813656,51.988453 
	C34.812092,52.994427 28.810524,54.000401 22.380035,55.005287 
	C22.164505,53.855370 22.377899,52.706539 22.815548,51.282948 
	C29.023438,50.004520 35.007072,49.000851 41.457260,48.340355 
	C41.553764,49.785168 41.183708,50.886810 40.813656,51.988453 
z"/>
<path fill="#AAB7C3" opacity="1.000000" stroke="none" 
	d="
M56.042747,50.998383 
	C62.028419,49.997921 68.014084,48.997459 74.421082,47.994240 
	C74.645157,48.806541 74.447906,49.621601 73.685608,50.729149 
	C67.412476,52.352715 61.704388,53.683800 55.996300,55.014885 
	C55.825718,55.013062 55.655140,55.011238 55.212154,54.650871 
	C55.307419,53.194347 55.675083,52.096367 56.042747,50.998383 
z"/>
<path fill="#C0C9D4" opacity="1.000000" stroke="none" 
	d="
M76.242958,42.735855 
	C70.306503,43.647198 64.597252,44.289310 58.461620,44.833515 
	C60.418026,43.494839 62.682693,41.850582 65.211945,41.110176 
	C68.787819,40.063393 72.559128,39.684265 76.669014,39.027199 
	C76.884132,40.178646 76.677139,41.322632 76.242958,42.735855 
z"/>
<path fill="#A1AFBC" opacity="1.000000" stroke="none" 
	d="
M56.060059,55.355614 
	C61.704388,53.683800 67.412476,52.352715 73.522171,51.008591 
	C73.785164,51.843369 73.646545,52.691189 73.281784,53.776970 
	C68.222748,54.772766 63.395622,55.572117 58.551029,56.245815 
	C57.782291,56.352715 56.934860,55.893707 56.060059,55.355614 
z"/>
<path fill="#8F9FAD" opacity="1.000000" stroke="none" 
	d="
M72.143539,57.809082 
	C71.683052,57.893036 71.428101,57.706429 71.123390,57.226082 
	C71.231033,57.026260 71.447113,57.040047 71.985260,57.095894 
	C72.307327,57.137947 72.290421,57.618649 72.143539,57.809082 
z"/>
<path fill="#050505" opacity="1.000000" stroke="none" 
	d="
M56.020535,50.608315 
	C55.675083,52.096367 55.307419,53.194347 54.956299,54.647057 
	C53.035362,59.034580 50.202938,55.365059 47.464474,55.800213 
	C45.877167,55.390102 44.676212,55.009087 43.158333,54.595905 
	C42.194931,53.952991 41.548454,53.342243 40.857819,52.359978 
	C41.183708,50.886810 41.553764,49.785168 41.880577,48.336945 
	C42.245861,46.574047 42.654381,45.157730 43.035164,43.370914 
	C43.808456,41.234783 44.577942,39.736069 47.080772,40.904308 
	C48.629459,41.627186 50.465408,41.734623 52.565437,42.135166 
	C54.390770,42.858837 55.823071,43.565670 57.336620,44.625999 
	C56.944687,46.725746 56.471504,48.471992 56.020535,50.608315 
z"/>
</svg>